<svg xmlns="http://www.w3.org/2000/svg" viewBox="0 0 800 320" role="img" aria-labelledby="title"><title id="title">命令笔记与代码片段主题封面</title><defs><pattern id="grid" width="32" height="32" patternUnits="userSpaceOnUse"><path d="M32 0H0v32" fill="none" stroke="#dbe0e6" stroke-width="1"/></pattern></defs><rect width="800" height="320" fill="#edf0f4"/><rect width="800" height="320" fill="url(#grid)"/><g transform="translate(52 40)"><rect x="16" y="16" width="434" height="224" rx="9" fill="#e4e7ec" stroke="#c6cdd6"/><rect width="434" height="224" rx="9" fill="#1d2939"/><path d="M0 44h434" stroke="#475467"/><g fill="#667085"><circle cx="23" cy="22" r="4"/><circle cx="39" cy="22" r="4"/><circle cx="55" cy="22" r="4"/></g><g font-family="Consolas,monospace"><text x="304" y="27" font-size="11" fill="#98a2b3">NOTES / 001</text><text x="24" y="100" font-size="26" fill="#7dd3e8">&gt; command_notes</text><text x="24" y="145" font-size="19" fill="#eaecf0">{ ideas, snippets }</text><text x="24" y="186" font-size="15" fill="#98a2b3">read · try · remember</text></g></g><g fill="none" stroke="#98a2b3" stroke-width="2"><path d="M532 96h70v128h90M602 160h90"/><rect x="680" y="82" width="24" height="24" rx="3" fill="#fff"/><rect x="680" y="148" width="24" height="24" rx="3" fill="#fff"/><rect x="680" y="212" width="24" height="24" rx="3" fill="#fff"/><path d="M602 96h78"/></g><circle cx="602" cy="160" r="5" fill="#00a7ce"/><text x="541" y="278" fill="#667085" font-size="12" font-family="Consolas,monospace">COLLECT / CONNECT</text></svg>
