<svg xmlns="http://www.w3.org/2000/svg" viewBox="0 0 800 320" role="img" aria-labelledby="title"><title id="title">Lame Writeup主题封面</title><defs><pattern id="grid" width="24" height="24" patternUnits="userSpaceOnUse"><circle cx="1" cy="1" r="1" fill="#d0d5dd"/></pattern></defs><rect width="800" height="320" fill="#edf0f4"/><rect width="800" height="320" fill="url(#grid)"/><text x="36" y="35" font-family="Consolas,monospace" font-size="12" letter-spacing="2" fill="#667085">FIELD NOTES / LAB</text><g stroke="#98a2b3" stroke-width="2" fill="none"><path d="M151 160h149M476 160h162M638 99v124"/><path d="M151 114v95"/></g><g fill="#fff" stroke="#b8c1cd" stroke-width="2"><rect x="61" y="83" width="180" height="65" rx="7"/><rect x="61" y="177" width="180" height="65" rx="7"/><rect x="548" y="70" width="180" height="61" rx="7"/><rect x="548" y="154" width="180" height="61" rx="7"/></g><rect x="295" y="99" width="185" height="126" rx="9" fill="#1d2939"/><text x="319" y="146" font-family="Consolas,Microsoft YaHei,sans-serif" font-size="27" fill="#7dd3e8">&gt; LAB</text><text x="319" y="190" font-family="Consolas,Microsoft YaHei,sans-serif" font-size="13" fill="#cbd5e1">observe / test</text><text x="88" y="123" font-family="Consolas,Microsoft YaHei,sans-serif" font-size="15" fill="#344054">ENUMERATE</text><text x="88" y="216" font-family="Consolas,Microsoft YaHei,sans-serif" font-size="15" fill="#344054">CONNECT</text><text x="572" y="108" font-family="Consolas,Microsoft YaHei,sans-serif" font-size="15" fill="#344054">SYSTEM</text><text x="572" y="191" font-family="Consolas,Microsoft YaHei,sans-serif" font-size="15" fill="#344054">NOTES</text><text x="38" y="290" font-family="Consolas,Microsoft YaHei,sans-serif" font-size="19" fill="#344054">Lame Writeup</text></svg>