<svg xmlns="http://www.w3.org/2000/svg" viewBox="0 0 800 320" role="img" aria-labelledby="title"><title id="title">薪酬收入与扣除构成示意</title><defs><pattern id="grid" width="24" height="24" patternUnits="userSpaceOnUse"><circle cx="1" cy="1" r="1" fill="#d0d5dd"/></pattern></defs><rect width="800" height="320" fill="#edf0f4"/><rect width="800" height="320" fill="url(#grid)"/><text x="36" y="35" font-family="Consolas,monospace" font-size="12" letter-spacing="2" fill="#667085">SALARY / INCOME STRUCTURE</text><g stroke="#c5ccd6" fill="white"><rect x="36" y="67" width="230" height="210" rx="8"/><rect x="366" y="67" width="398" height="60" rx="8"/><rect x="366" y="142" width="190" height="60" rx="8"/><rect x="574" y="142" width="190" height="60" rx="8"/><rect x="366" y="217" width="398" height="60" rx="8"/></g><text x="67" y="112" font-family="Consolas,Microsoft YaHei,sans-serif" font-size="23" fill="#344054">税前收入</text><text x="68" y="188" font-family="Consolas,Microsoft YaHei,sans-serif" font-size="30" fill="#1d2939">INCOME</text><text x="389" y="105" font-family="Consolas,Microsoft YaHei,sans-serif" font-size="21" fill="#344054">五险一金</text><text x="389" y="180" font-family="Consolas,Microsoft YaHei,sans-serif" font-size="18" fill="#344054">个人所得税</text><text x="597" y="180" font-family="Consolas,Microsoft YaHei,sans-serif" font-size="18" fill="#344054">其他扣除</text><text x="389" y="255" font-family="Consolas,Microsoft YaHei,sans-serif" font-size="23" fill="#007f9e">到手收入</text><path d="M281 171h59m-13-13 13 13-13 13" stroke="#00a7ce" stroke-width="3" fill="none"/><path d="M67 221h159M67 237h110" stroke="#d0d5dd" stroke-width="5"/></svg>